<svg id="图层_1" data-name="图层 1" xmlns="http://www.w3.org/2000/svg" viewBox="0 0 272.13 272.13"><defs><style>.cls-1{fill:#fff;}.cls-2{fill:#56ad95;}</style></defs><title>未标题-2</title><circle class="cls-1" cx="136.06" cy="136.06" r="136.06"/><polygon class="cls-2" points="62.98 47.69 20.21 138.36 136.06 250.76 251.92 136.94 207.85 47.69 62.98 47.69"/><rect class="cls-1" x="82.58" y="75.43" width="110.51" height="26.21"/><rect class="cls-1" x="122.37" y="95.62" width="28.57" height="45.1"/><rect class="cls-1" x="122.37" y="149.93" width="28.57" height="57.38"/><path class="cls-1" d="M136.77,118.17C96,118.17,63,125.76,63,135.11s33,16.95,73.79,16.95,73.79-7.59,73.79-16.95S177.53,118.17,136.77,118.17Zm0,29c-37.46,0-67.83-5.87-67.83-13.11S99.31,121,136.77,121s67.83,5.86,67.83,13.1S174.23,147.16,136.77,147.16Z"/></svg>