<svg xmlns="http://www.w3.org/2000/svg" xmlns:xlink="http://www.w3.org/1999/xlink" viewBox="0 0 272.13 272.13"><defs><style>.cls-1{fill:#fff;}.cls-2{fill:url(#未命名的渐变_4);}.cls-3{fill:url(#未命名的渐变_9);}</style><linearGradient id="未命名的渐变_4" x1="131.94" y1="247.04" x2="131.94" y2="39.34" gradientUnits="userSpaceOnUse"><stop offset="0" stop-color="#00a0d5"/><stop offset="1" stop-color="#009c6f"/></linearGradient><linearGradient id="未命名的渐变_9" x1="115.41" y1="152.73" x2="177.36" y2="91.26" gradientUnits="userSpaceOnUse"><stop offset="0" stop-color="#00a0d5"/><stop offset="0.01" stop-color="#00a1e9"/><stop offset="1" stop-color="#00499e"/></linearGradient></defs><title>未标题-2</title><circle class="cls-1" cx="136.06" cy="136.06" r="136.06"/><path class="cls-2" d="M145,222.6a108.73,108.73,0,0,1-43.71-12.27c-31.87-16.85-53-58.16-38.48-97.07,6.66-17.85,17.1-32.55,35-40.85a85.53,85.53,0,0,1,18.14-6.26,66.64,66.64,0,0,1,19-2.88c38.5,0,63.09,41.71,63.09,65,0,9.46-1.65,29.44-16.24,44.81a72.47,72.47,0,0,0,37.49-24.79c13.82-17.11,19.59-36.39,14.54-58.14C229.49,71.8,219,57.34,204,46.27c-25.48-18.88-54.15-24.78-85.15-19.13C57.94,38.25,17.77,98.5,30.77,158.92c12.38,57.51,66,95.15,124.36,87,28.54-4,52-17.44,70.4-39.52.5-.6,1-1.23,1.76-2.25-3.2,1.74-5.77,3.34-8.5,4.6A148.34,148.34,0,0,1,145,222.6Z"/><path class="cls-3" d="M134.86,63.27a66.64,66.64,0,0,0-19,2.88,59.5,59.5,0,0,1,23.7-.47c12.74,2.37,21.8,11.34,24.2,24,.43,2.29.45,4.66.66,7.09l3.66-.53a13.25,13.25,0,0,1-1.2.88c-2.89,1.44-3,2.11-.61,4.51,1.47,1.48,3,2.89,4.41,4.45,2.4,2.72,2.36,2.76-.65,4.76s-3.26,2.93-1.84,5.9c1.67,3.48,1.6,3.66-1.75,5.33.56.84,1.48,1.63,1.36,2.2a2.9,2.9,0,0,1-1.8,1.8c-2.12.51-2.7,1.77-2.41,3.73a10.75,10.75,0,0,1,0,1.39c0,3.22-1.09,4.8-4.32,4.66a38.47,38.47,0,0,1-9.92-1.8c-3.91-1.24-7.82-2.11-11.84-1.3-8.82,1.76-16.13,10.19-16.54,19.45a20,20,0,0,0,13.87,20.31,73.84,73.84,0,0,0,33,3.27,89.48,89.48,0,0,0,13.88-2.73C196.3,157.7,198,137.72,198,128.26,198,105,173.36,63.27,134.86,63.27Z"/></svg>